<svg width="1920" height="4582" viewBox="0 0 1920 4582" fill="none" xmlns="http://www.w3.org/2000/svg">
<rect width="1920" height="4582" fill="#F3F2F4"/>
<rect x="710.5" y="300.5" width="499" height="299" rx="4.5" fill="white"/>
<rect x="710.5" y="300.5" width="499" height="299" rx="4.5" stroke="#33240C"/>
<path d="M746.061 389V374.455H750.755C751.788 374.455 752.649 374.653 753.341 375.051C754.037 375.444 754.56 375.979 754.91 376.656C755.265 377.333 755.443 378.096 755.443 378.943C755.443 379.791 755.268 380.555 754.917 381.237C754.567 381.914 754.046 382.452 753.355 382.849C752.663 383.242 751.804 383.439 750.777 383.439H747.083V382.246H750.741C751.503 382.246 752.136 382.104 752.637 381.82C753.139 381.531 753.513 381.138 753.76 380.641C754.011 380.143 754.136 379.578 754.136 378.943C754.136 378.309 754.011 377.743 753.76 377.246C753.513 376.749 753.137 376.358 752.63 376.074C752.128 375.79 751.492 375.648 750.72 375.648H747.389V389H746.061ZM761.345 389.249C760.687 389.249 760.085 389.121 759.541 388.865C758.996 388.605 758.563 388.231 758.241 387.743C757.919 387.25 757.758 386.654 757.758 385.953C757.758 385.413 757.86 384.959 758.064 384.589C758.267 384.22 758.556 383.917 758.93 383.68C759.304 383.444 759.747 383.257 760.258 383.119C760.77 382.982 761.333 382.875 761.949 382.8C762.559 382.724 763.075 382.658 763.497 382.601C763.923 382.544 764.247 382.454 764.47 382.331C764.692 382.208 764.804 382.009 764.804 381.734V381.479C764.804 380.735 764.581 380.151 764.136 379.724C763.696 379.294 763.061 379.078 762.233 379.078C761.447 379.078 760.805 379.251 760.308 379.597C759.815 379.942 759.47 380.349 759.271 380.818L758.071 380.385C758.317 379.788 758.658 379.312 759.093 378.957C759.529 378.598 760.017 378.339 760.556 378.183C761.096 378.022 761.643 377.942 762.197 377.942C762.614 377.942 763.047 377.996 763.497 378.105C763.951 378.214 764.373 378.403 764.761 378.673C765.149 378.938 765.464 379.31 765.706 379.788C765.947 380.262 766.068 380.863 766.068 381.592V389H764.804V387.274H764.725C764.574 387.596 764.349 387.909 764.051 388.212C763.752 388.515 763.378 388.763 762.929 388.957C762.479 389.152 761.951 389.249 761.345 389.249ZM761.515 388.091C762.188 388.091 762.77 387.942 763.262 387.643C763.755 387.345 764.134 386.95 764.399 386.457C764.669 385.96 764.804 385.413 764.804 384.817V383.24C764.709 383.33 764.55 383.411 764.328 383.482C764.11 383.553 763.857 383.616 763.568 383.673C763.284 383.725 763 383.77 762.716 383.808C762.431 383.846 762.176 383.879 761.949 383.908C761.333 383.983 760.807 384.102 760.372 384.263C759.936 384.424 759.602 384.646 759.37 384.93C759.138 385.21 759.022 385.57 759.022 386.01C759.022 386.673 759.259 387.187 759.733 387.551C760.206 387.911 760.8 388.091 761.515 388.091ZM776.76 380.484L775.603 380.811C775.489 380.484 775.328 380.188 775.12 379.923C774.911 379.658 774.639 379.447 774.303 379.291C773.971 379.135 773.56 379.057 773.067 379.057C772.328 379.057 771.722 379.232 771.249 379.582C770.775 379.933 770.539 380.385 770.539 380.939C770.539 381.408 770.7 381.789 771.022 382.082C771.348 382.371 771.85 382.601 772.527 382.771L774.175 383.176C775.089 383.399 775.773 383.751 776.228 384.234C776.687 384.717 776.917 385.323 776.917 386.053C776.917 386.668 776.746 387.215 776.405 387.693C776.064 388.171 775.588 388.548 774.978 388.822C774.372 389.092 773.668 389.227 772.868 389.227C771.803 389.227 770.925 388.988 770.233 388.51C769.542 388.027 769.099 387.331 768.905 386.422L770.12 386.124C770.276 386.772 770.581 387.262 771.036 387.594C771.495 387.925 772.099 388.091 772.847 388.091C773.685 388.091 774.355 387.904 774.857 387.53C775.359 387.151 775.61 386.678 775.61 386.109C775.61 385.669 775.463 385.3 775.169 385.001C774.876 384.698 774.431 384.476 773.834 384.334L772.051 383.908C771.105 383.68 770.404 383.321 769.949 382.828C769.495 382.336 769.267 381.725 769.267 380.996C769.267 380.394 769.431 379.866 769.757 379.412C770.084 378.953 770.534 378.593 771.107 378.332C771.68 378.072 772.333 377.942 773.067 377.942C774.066 377.942 774.864 378.169 775.461 378.624C776.062 379.073 776.495 379.694 776.76 380.484ZM787.014 380.484L785.857 380.811C785.743 380.484 785.582 380.188 785.374 379.923C785.165 379.658 784.893 379.447 784.557 379.291C784.225 379.135 783.813 379.057 783.321 379.057C782.582 379.057 781.976 379.232 781.503 379.582C781.029 379.933 780.793 380.385 780.793 380.939C780.793 381.408 780.954 381.789 781.276 382.082C781.602 382.371 782.104 382.601 782.781 382.771L784.429 383.176C785.343 383.399 786.027 383.751 786.482 384.234C786.941 384.717 787.17 385.323 787.17 386.053C787.17 386.668 787 387.215 786.659 387.693C786.318 388.171 785.842 388.548 785.232 388.822C784.625 389.092 783.922 389.227 783.122 389.227C782.057 389.227 781.179 388.988 780.487 388.51C779.796 388.027 779.353 387.331 779.159 386.422L780.374 386.124C780.53 386.772 780.835 387.262 781.29 387.594C781.749 387.925 782.353 388.091 783.101 388.091C783.939 388.091 784.609 387.904 785.111 387.53C785.613 387.151 785.864 386.678 785.864 386.109C785.864 385.669 785.717 385.3 785.423 385.001C785.13 384.698 784.685 384.476 784.088 384.334L782.305 383.908C781.358 383.68 780.658 383.321 780.203 382.828C779.749 382.336 779.521 381.725 779.521 380.996C779.521 380.394 779.685 379.866 780.011 379.412C780.338 378.953 780.788 378.593 781.361 378.332C781.934 378.072 782.587 377.942 783.321 377.942C784.32 377.942 785.118 378.169 785.714 378.624C786.316 379.073 786.749 379.694 787.014 380.484ZM792.36 389L789.065 378.091H790.4L792.985 387.089H793.078L795.656 378.091H796.998L799.555 387.068H799.654L802.24 378.091H803.575L800.279 389H798.973L796.387 380.058H796.252L793.667 389H792.36ZM809.901 389.227C808.959 389.227 808.126 388.988 807.401 388.51C806.682 388.032 806.118 387.371 805.711 386.528C805.304 385.681 805.1 384.703 805.1 383.595C805.1 382.478 805.304 381.495 805.711 380.648C806.118 379.795 806.682 379.133 807.401 378.659C808.126 378.181 808.959 377.942 809.901 377.942C810.844 377.942 811.674 378.181 812.394 378.659C813.114 379.137 813.677 379.8 814.085 380.648C814.496 381.495 814.702 382.478 814.702 383.595C814.702 384.703 814.499 385.681 814.092 386.528C813.684 387.371 813.119 388.032 812.394 388.51C811.674 388.988 810.844 389.227 809.901 389.227ZM809.901 388.07C810.659 388.07 811.3 387.866 811.826 387.459C812.352 387.052 812.749 386.509 813.019 385.832C813.294 385.155 813.431 384.41 813.431 383.595C813.431 382.781 813.294 382.033 813.019 381.351C812.749 380.669 812.352 380.122 811.826 379.71C811.3 379.298 810.659 379.092 809.901 379.092C809.148 379.092 808.507 379.298 807.977 379.71C807.451 380.122 807.051 380.669 806.776 381.351C806.506 382.033 806.371 382.781 806.371 383.595C806.371 384.41 806.506 385.155 806.776 385.832C807.051 386.509 807.451 387.052 807.977 387.459C808.502 387.866 809.144 388.07 809.901 388.07ZM817.478 389V378.091H818.706V379.767H818.799C819.016 379.218 819.395 378.775 819.935 378.439C820.48 378.098 821.095 377.928 821.782 377.928C821.886 377.928 822.002 377.93 822.13 377.935C822.257 377.939 822.364 377.944 822.449 377.949V379.234C822.392 379.225 822.293 379.211 822.151 379.192C822.009 379.173 821.855 379.163 821.689 379.163C821.121 379.163 820.614 379.284 820.169 379.526C819.729 379.762 819.381 380.091 819.125 380.513C818.87 380.934 818.742 381.415 818.742 381.955V389H817.478ZM828.202 389.227C827.307 389.227 826.524 388.991 825.851 388.517C825.179 388.044 824.653 387.383 824.275 386.536C823.9 385.688 823.713 384.701 823.713 383.574C823.713 382.452 823.9 381.469 824.275 380.626C824.653 379.779 825.181 379.121 825.858 378.652C826.535 378.179 827.324 377.942 828.223 377.942C828.886 377.942 829.438 378.06 829.878 378.297C830.319 378.529 830.671 378.818 830.936 379.163C831.202 379.509 831.408 379.845 831.554 380.172H831.668V374.455H832.939V389H831.703V386.976H831.554C831.408 387.307 831.199 387.648 830.929 387.999C830.659 388.344 830.302 388.635 829.857 388.872C829.417 389.109 828.865 389.227 828.202 389.227ZM828.351 388.07C829.057 388.07 829.658 387.878 830.155 387.494C830.652 387.106 831.031 386.573 831.292 385.896C831.557 385.214 831.689 384.433 831.689 383.553C831.689 382.681 831.559 381.912 831.299 381.244C831.038 380.572 830.659 380.046 830.162 379.668C829.665 379.284 829.061 379.092 828.351 379.092C827.622 379.092 827.007 379.291 826.505 379.689C826.007 380.082 825.629 380.615 825.368 381.287C825.113 381.959 824.985 382.714 824.985 383.553C824.985 384.4 825.115 385.165 825.375 385.847C825.636 386.528 826.015 387.071 826.512 387.473C827.014 387.871 827.627 388.07 828.351 388.07Z" fill="black" fill-opacity="0.95"/>
<rect x="1045" y="507" width="99" height="44" rx="5" fill="#BD8631"/>
<path d="M1066.62 536V521.455H1069.25V533.791H1075.66V536H1066.62ZM1082.59 536.213C1081.53 536.213 1080.6 535.979 1079.82 535.51C1079.04 535.041 1078.43 534.385 1078 533.543C1077.58 532.7 1077.36 531.715 1077.36 530.588C1077.36 529.461 1077.58 528.474 1078 527.626C1078.43 526.779 1079.04 526.121 1079.82 525.652C1080.6 525.183 1081.53 524.949 1082.59 524.949C1083.66 524.949 1084.58 525.183 1085.36 525.652C1086.14 526.121 1086.75 526.779 1087.17 527.626C1087.6 528.474 1087.82 529.461 1087.82 530.588C1087.82 531.715 1087.6 532.7 1087.17 533.543C1086.75 534.385 1086.14 535.041 1085.36 535.51C1084.58 535.979 1083.66 536.213 1082.59 536.213ZM1082.61 534.153C1083.18 534.153 1083.67 533.995 1084.05 533.678C1084.44 533.356 1084.73 532.925 1084.92 532.385C1085.11 531.845 1085.21 531.244 1085.21 530.581C1085.21 529.913 1085.11 529.31 1084.92 528.77C1084.73 528.225 1084.44 527.792 1084.05 527.47C1083.67 527.148 1083.18 526.987 1082.61 526.987C1082.01 526.987 1081.52 527.148 1081.13 527.47C1080.74 527.792 1080.45 528.225 1080.25 528.77C1080.07 529.31 1079.97 529.913 1079.97 530.581C1079.97 531.244 1080.07 531.845 1080.25 532.385C1080.45 532.925 1080.74 533.356 1081.13 533.678C1081.52 533.995 1082.01 534.153 1082.61 534.153ZM1094.75 540.318C1093.82 540.318 1093.03 540.193 1092.37 539.942C1091.7 539.696 1091.17 539.364 1090.77 538.947C1090.37 538.531 1090.09 538.069 1089.93 537.562L1092.25 537.001C1092.35 537.214 1092.5 537.425 1092.7 537.634C1092.9 537.847 1093.17 538.022 1093.5 538.159C1093.84 538.301 1094.27 538.372 1094.79 538.372C1095.52 538.372 1096.12 538.195 1096.6 537.839C1097.08 537.489 1097.32 536.911 1097.32 536.107V534.04H1097.19C1097.06 534.305 1096.86 534.577 1096.61 534.857C1096.35 535.136 1096.02 535.37 1095.6 535.56C1095.19 535.749 1094.67 535.844 1094.05 535.844C1093.21 535.844 1092.45 535.647 1091.77 535.254C1091.09 534.857 1090.55 534.265 1090.15 533.479C1089.75 532.688 1089.55 531.698 1089.55 530.51C1089.55 529.312 1089.75 528.301 1090.15 527.477C1090.55 526.649 1091.09 526.021 1091.78 525.595C1092.46 525.164 1093.22 524.949 1094.06 524.949C1094.7 524.949 1095.22 525.058 1095.63 525.276C1096.05 525.489 1096.38 525.747 1096.63 526.05C1096.87 526.348 1097.06 526.63 1097.19 526.895H1097.33V525.091H1099.87V536.178C1099.87 537.11 1099.64 537.882 1099.2 538.493C1098.75 539.104 1098.14 539.561 1097.37 539.864C1096.6 540.167 1095.73 540.318 1094.75 540.318ZM1094.77 533.827C1095.31 533.827 1095.77 533.694 1096.16 533.429C1096.54 533.164 1096.83 532.783 1097.03 532.286C1097.23 531.788 1097.33 531.192 1097.33 530.496C1097.33 529.809 1097.23 529.208 1097.03 528.692C1096.84 528.176 1096.55 527.776 1096.17 527.491C1095.79 527.203 1095.32 527.058 1094.77 527.058C1094.19 527.058 1093.72 527.207 1093.33 527.506C1092.95 527.804 1092.66 528.214 1092.47 528.734C1092.27 529.25 1092.17 529.838 1092.17 530.496C1092.17 531.163 1092.27 531.748 1092.47 532.25C1092.66 532.747 1092.96 533.135 1093.34 533.415C1093.73 533.689 1094.2 533.827 1094.77 533.827ZM1110.21 521.455V536H1107.58V521.455H1110.21ZM1115.52 529.608V536H1112.95V525.091H1115.41V526.945H1115.54C1115.79 526.334 1116.19 525.848 1116.74 525.489C1117.29 525.129 1117.97 524.949 1118.79 524.949C1119.54 524.949 1120.2 525.11 1120.76 525.432C1121.32 525.754 1121.75 526.22 1122.06 526.831C1122.37 527.442 1122.53 528.183 1122.52 529.054V536H1119.95V529.452C1119.95 528.723 1119.76 528.152 1119.38 527.74C1119.01 527.328 1118.49 527.122 1117.83 527.122C1117.38 527.122 1116.98 527.222 1116.63 527.42C1116.28 527.615 1116.01 527.896 1115.81 528.266C1115.62 528.635 1115.52 529.082 1115.52 529.608Z" fill="black" fill-opacity="0.95"/>
<rect x="744.5" y="407.5" width="399" height="79" rx="4.5" fill="white"/>
<rect x="744.5" y="407.5" width="399" height="79" rx="4.5" stroke="#33240C"/>
<path d="M1117.42 451.916C1117.58 451.766 1117.74 451.609 1117.89 451.446L1120.5 448.5C1121.5 447.5 1122.72 446.5 1124 446.5C1122.72 446.5 1121.5 445.5 1120.5 444.5L1117.89 441.553C1116.45 440.009 1114.45 439.095 1112.33 439.007C1110.22 438.919 1108.15 439.665 1106.58 441.084M1115.3 453.297C1113.76 453.982 1112.05 454.173 1110.41 453.841C1108.76 453.509 1107.26 452.673 1106.11 451.447L1103.5 448.5C1102.5 447.5 1101.28 446.5 1100 446.5C1101.28 446.5 1102.5 445.5 1103.5 444.5L1104.91 442.908M1100.5 435L1123.5 458M1113.77 448.268C1114.24 447.799 1114.5 447.163 1114.5 446.5C1114.5 445.837 1114.24 445.201 1113.77 444.732C1113.3 444.263 1112.66 444 1112 444C1111.34 444 1110.7 444.263 1110.23 444.732" stroke="#33240C" stroke-width="2"/>
<path d="M894.344 196.762C894.344 194.634 893.584 192.594 892.23 191.09C890.876 189.586 889.04 188.741 887.125 188.741C885.211 188.741 883.375 189.586 882.021 191.09C880.667 192.594 879.906 194.634 879.906 196.762C879.906 198.889 880.667 200.929 882.021 202.434C883.375 203.938 885.211 204.783 887.125 204.783C889.04 204.783 890.876 203.938 892.23 202.434C893.584 200.929 894.344 198.889 894.344 196.762ZM882.532 196.762C882.532 196.091 882.65 195.427 882.881 194.808C883.112 194.189 883.451 193.626 883.877 193.152C884.304 192.678 884.81 192.302 885.367 192.046C885.925 191.789 886.522 191.657 887.125 191.657C887.729 191.657 888.326 191.789 888.883 192.046C889.441 192.302 889.947 192.678 890.374 193.152C890.8 193.626 891.139 194.189 891.37 194.808C891.601 195.427 891.719 196.091 891.719 196.762C891.719 198.115 891.235 199.414 890.374 200.371C889.512 201.328 888.344 201.866 887.125 201.866C885.907 201.866 884.739 201.328 883.877 200.371C883.016 199.414 882.532 198.115 882.532 196.762ZM877.938 207.699H888.918C888.488 208.604 888.168 209.584 887.979 210.616H877.938C877.59 210.616 877.256 210.77 877.01 211.044C876.763 211.317 876.625 211.688 876.625 212.074V213.533C876.625 217.208 879.51 221.158 884.752 222.079C883.907 222.721 883.204 223.575 882.702 224.57C877.163 222.904 874 218.162 874 213.533V212.074C874 210.914 874.415 209.801 875.153 208.981C875.892 208.16 876.893 207.699 877.938 207.699ZM892.058 207.699C893.381 205.92 895.384 204.783 897.626 204.783C899.198 204.779 900.728 205.348 901.982 206.402C903.236 207.455 904.146 208.935 904.572 210.616C904.952 212.117 904.93 213.708 904.51 215.195C904.09 216.683 903.289 218.002 902.206 218.992C901.122 219.983 899.803 220.601 898.408 220.772C897.013 220.943 895.604 220.66 894.352 219.955C893.388 219.41 892.547 218.632 891.89 217.677C891.234 216.722 890.779 215.615 890.559 214.439C890.339 213.262 890.359 212.045 890.619 210.879C890.879 209.713 891.369 208.626 892.058 207.699ZM893.478 210.616C893.22 211.222 893.071 211.879 893.041 212.549C893.011 213.218 893.1 213.888 893.302 214.52C893.712 215.795 894.561 216.838 895.662 217.418C896.764 217.998 898.027 218.069 899.176 217.613C900.323 217.158 901.262 216.215 901.784 214.992C902.306 213.767 902.369 212.363 901.959 211.087C901.549 209.811 900.7 208.768 899.599 208.188C898.497 207.608 897.233 207.538 896.084 207.993C894.936 208.448 893.998 209.392 893.476 210.616M912.549 224.57C912.05 223.574 911.348 222.722 910.499 222.082C915.739 221.158 918.627 217.205 918.627 213.533V212.074C918.627 211.688 918.488 211.317 918.242 211.044C917.996 210.77 917.662 210.616 917.314 210.616H907.273C907.088 209.599 906.773 208.616 906.336 207.699H917.314C918.358 207.699 919.36 208.16 920.098 208.981C920.837 209.801 921.252 210.914 921.252 212.074V213.533C921.252 218.162 918.086 222.902 912.549 224.57ZM909.405 224.824C908.687 224.127 907.767 223.742 906.814 223.742H888.438C887.921 223.74 887.408 223.852 886.929 224.071C886.451 224.291 886.016 224.613 885.651 225.02C885.285 225.426 884.995 225.909 884.797 226.441C884.6 226.972 884.499 227.542 884.5 228.117V229.575C884.5 235.324 889.383 241.242 897.626 241.242C905.869 241.242 910.751 235.324 910.751 229.575V228.117C910.751 226.804 910.231 225.626 909.405 224.821M887.125 228.117C887.125 227.73 887.264 227.359 887.51 227.086C887.756 226.812 888.09 226.658 888.438 226.658H906.814C907.162 226.658 907.495 226.812 907.742 227.086C907.988 227.359 908.126 227.73 908.126 228.117V229.575C908.126 233.77 904.367 238.325 897.626 238.325C890.885 238.325 887.125 233.77 887.125 229.575V228.117ZM908.126 188.741C910.041 188.741 911.877 189.586 913.231 191.09C914.585 192.594 915.345 194.634 915.345 196.762C915.345 198.889 914.585 200.929 913.231 202.434C911.877 203.938 910.041 204.783 908.126 204.783C906.211 204.783 904.375 203.938 903.022 202.434C901.668 200.929 900.907 198.889 900.907 196.762C900.907 194.634 901.668 192.594 903.022 191.09C904.375 189.586 906.211 188.741 908.126 188.741ZM908.126 191.657C906.908 191.657 905.739 192.195 904.878 193.152C904.016 194.11 903.532 195.408 903.532 196.762C903.532 198.115 904.016 199.414 904.878 200.371C905.739 201.328 906.908 201.866 908.126 201.866C909.345 201.866 910.513 201.328 911.375 200.371C912.236 199.414 912.72 198.115 912.72 196.762C912.72 195.408 912.236 194.11 911.375 193.152C910.513 192.195 909.345 191.657 908.126 191.657Z" fill="#5DADE2"/>
<path d="M933.327 180L932.802 250" stroke="#5DADE2" stroke-width="2.1"/>
<path d="M957.452 196.935C957.297 196.375 957.082 195.875 956.809 195.433C956.542 194.984 956.219 194.601 955.839 194.283C955.466 193.966 955.038 193.727 954.553 193.568C954.068 193.403 953.54 193.32 952.968 193.32C951.943 193.32 951.029 193.607 950.227 194.18C949.426 194.753 948.795 195.595 948.335 196.707C947.881 197.812 947.654 199.158 947.654 200.747C947.654 202.349 947.881 203.705 948.335 204.817C948.789 205.929 949.42 206.775 950.227 207.355C951.035 207.928 951.974 208.215 953.043 208.215C954.012 208.215 954.851 208.008 955.56 207.593C956.275 207.179 956.824 206.592 957.21 205.832C957.595 205.066 957.788 204.168 957.788 203.139L958.571 203.274H953.388V200.27H961.134V202.818C961.134 204.634 960.786 206.205 960.09 207.531C959.394 208.857 958.437 209.879 957.219 210.597C956.001 211.308 954.603 211.664 953.024 211.664C951.265 211.664 949.721 211.225 948.391 210.348C947.067 209.464 946.032 208.211 945.287 206.588C944.547 204.959 944.178 203.025 944.178 200.788C944.178 199.076 944.395 197.546 944.83 196.199C945.271 194.853 945.887 193.71 946.676 192.771C947.465 191.825 948.391 191.107 949.454 190.617C950.516 190.119 951.673 189.871 952.922 189.871C953.978 189.871 954.963 190.044 955.877 190.389C956.79 190.727 957.601 191.21 958.31 191.839C959.024 192.467 959.612 193.213 960.072 194.076C960.532 194.939 960.833 195.892 960.976 196.935H957.452ZM967.104 211.374V190.161H974.412C975.792 190.161 976.939 190.403 977.852 190.886C978.772 191.362 979.459 192.015 979.912 192.844C980.372 193.672 980.602 194.611 980.602 195.661C980.602 196.524 980.453 197.263 980.155 197.878C979.856 198.485 979.456 198.979 978.952 199.359C978.448 199.738 977.886 200.011 977.265 200.177V200.384C977.942 200.426 978.592 200.657 979.213 201.078C979.841 201.492 980.354 202.079 980.751 202.839C981.149 203.598 981.348 204.517 981.348 205.594C981.348 206.692 981.109 207.679 980.63 208.556C980.152 209.426 979.43 210.114 978.467 210.618C977.504 211.122 976.292 211.374 974.832 211.374H967.104ZM970.562 208.163H974.282C975.537 208.163 976.441 207.897 976.994 207.365C977.554 206.826 977.834 206.136 977.834 205.294C977.834 204.665 977.694 204.099 977.414 203.595C977.134 203.084 976.737 202.683 976.221 202.394C975.705 202.097 975.09 201.948 974.375 201.948H970.562V208.163ZM970.562 199.182H973.983C974.58 199.182 975.117 199.062 975.596 198.82C976.075 198.572 976.451 198.222 976.724 197.774C977.004 197.318 977.144 196.78 977.144 196.158C977.144 195.336 976.883 194.659 976.361 194.128C975.845 193.596 975.077 193.33 974.058 193.33H970.562V199.182ZM989.536 190.161L994.505 206.858H994.7L999.66 190.161H1003.46L996.732 211.374H992.463L985.742 190.161H989.536Z" fill="#5DADE2"/>
<path d="M953.269 228.63C953.185 227.686 952.809 226.935 952.143 226.376C951.477 225.819 950.639 225.54 949.63 225.54C948.919 225.54 948.292 225.675 947.751 225.946C947.213 226.216 946.791 226.592 946.483 227.073C946.179 227.548 946.028 228.089 946.028 228.697C946.028 229.144 946.115 229.537 946.289 229.874C946.463 230.211 946.696 230.5 946.99 230.743C947.288 230.981 947.616 231.185 947.974 231.357C948.337 231.528 948.702 231.672 949.07 231.787L950.681 232.301C951.169 232.451 951.656 232.641 952.143 232.873C952.63 233.105 953.075 233.398 953.478 233.752C953.886 234.099 954.211 234.528 954.455 235.036C954.703 235.538 954.828 236.143 954.828 236.85C954.828 237.757 954.616 238.571 954.194 239.295C953.771 240.018 953.165 240.593 952.374 241.019C951.584 241.439 950.636 241.648 949.533 241.648C948.494 241.648 947.591 241.458 946.826 241.076C946.06 240.69 945.458 240.157 945.021 239.477C944.583 238.798 944.337 238.01 944.283 237.116H945.714C945.764 237.784 945.963 238.35 946.311 238.814C946.659 239.278 947.111 239.632 947.668 239.875C948.225 240.113 948.847 240.231 949.533 240.231C950.293 240.231 950.97 240.09 951.561 239.808C952.158 239.521 952.625 239.124 952.963 238.616C953.306 238.102 953.478 237.505 953.478 236.826C953.478 236.251 953.344 235.77 953.075 235.384C952.807 234.992 952.432 234.663 951.949 234.398C951.472 234.132 950.917 233.898 950.286 233.693L948.459 233.097C947.261 232.699 946.331 232.15 945.67 231.448C945.008 230.746 944.678 229.851 944.678 228.763C944.678 227.852 944.897 227.051 945.334 226.36C945.777 225.664 946.373 225.122 947.124 224.736C947.88 224.344 948.728 224.148 949.667 224.148C950.617 224.148 951.457 224.341 952.188 224.728C952.919 225.115 953.498 225.647 953.925 226.327C954.358 227.001 954.589 227.769 954.619 228.63H953.269ZM969.413 224.388H970.808V235.624C970.808 236.779 970.564 237.812 970.077 238.723C969.59 239.629 968.911 240.345 968.041 240.869C967.176 241.389 966.169 241.648 965.021 241.648C963.877 241.648 962.871 241.386 962 240.861C961.131 240.336 960.452 239.621 959.965 238.715C959.477 237.809 959.234 236.779 959.234 235.624V224.388H960.628V235.517C960.628 236.417 960.81 237.221 961.173 237.928C961.536 238.629 962.045 239.182 962.701 239.585C963.363 239.988 964.136 240.19 965.021 240.19C965.906 240.19 966.679 239.988 967.34 239.585C968.001 239.182 968.511 238.629 968.869 237.928C969.232 237.221 969.413 236.417 969.413 235.517V224.388ZM975.911 241.358V224.388H980.841C981.925 224.388 982.829 224.62 983.555 225.084C984.286 225.542 984.836 226.167 985.203 226.956C985.576 227.747 985.763 228.636 985.763 229.625C985.763 230.614 985.579 231.506 985.211 232.301C984.843 233.091 984.296 233.718 983.57 234.182C982.845 234.641 981.942 234.87 980.863 234.87H976.985V233.478H980.826C981.626 233.478 982.29 233.312 982.817 232.981C983.344 232.644 983.737 232.185 983.995 231.605C984.259 231.025 984.391 230.365 984.391 229.625C984.391 228.885 984.259 228.224 983.995 227.644C983.737 227.064 983.341 226.609 982.81 226.277C982.283 225.946 981.614 225.78 980.803 225.78H977.306V241.358H975.911ZM990.087 241.358V224.388H995.016C996.1 224.388 997.005 224.62 997.731 225.084C998.462 225.542 999.011 226.167 999.379 226.956C999.752 227.747 999.938 228.636 999.938 229.625C999.938 230.614 999.754 231.506 999.386 232.301C999.018 233.091 998.472 233.718 997.746 234.182C997.02 234.641 996.117 234.87 995.038 234.87H991.161V233.478H995.001C995.802 233.478 996.466 233.312 996.993 232.981C997.519 232.644 997.913 232.185 998.171 231.605C998.435 231.025 998.566 230.365 998.566 229.625C998.566 228.885 998.435 228.224 998.171 227.644C997.913 227.064 997.517 226.609 996.985 226.277C996.458 225.946 995.789 225.78 994.979 225.78H991.481V241.358H990.087ZM1016.78 232.873C1016.78 234.641 1016.5 236.179 1015.93 237.489C1015.37 238.792 1014.59 239.803 1013.59 240.521C1012.6 241.234 1011.46 241.59 1010.18 241.59C1008.89 241.59 1007.75 241.234 1006.75 240.521C1005.76 239.803 1004.99 238.792 1004.42 237.489C1003.86 236.179 1003.58 234.641 1003.58 232.873C1003.58 231.105 1003.86 229.57 1004.42 228.266C1004.99 226.956 1005.77 225.946 1006.76 225.233C1007.75 224.515 1008.89 224.156 1010.18 224.156C1011.46 224.156 1012.6 224.515 1013.59 225.233C1014.59 225.946 1015.37 226.956 1015.93 228.266C1016.5 229.57 1016.78 231.105 1016.78 232.873ZM1015.43 232.873C1015.43 231.354 1015.2 230.053 1014.74 228.97C1014.28 227.882 1013.66 227.051 1012.87 226.476C1012.08 225.901 1011.18 225.614 1010.18 225.614C1009.18 225.614 1008.28 225.901 1007.49 226.476C1006.7 227.051 1006.07 227.879 1005.61 228.962C1005.15 230.045 1004.93 231.348 1004.93 232.873C1004.93 234.392 1005.15 235.693 1005.61 236.776C1006.07 237.859 1006.69 238.69 1007.48 239.27C1008.27 239.844 1009.17 240.132 1010.18 240.132C1011.18 240.132 1012.08 239.844 1012.87 239.27C1013.66 238.695 1014.29 237.867 1014.75 236.784C1015.21 235.696 1015.43 234.392 1015.43 232.873ZM1021.21 241.358V224.388H1026.14C1027.22 224.388 1028.12 224.606 1028.85 225.043C1029.58 225.473 1030.13 226.073 1030.5 226.841C1030.87 227.603 1031.06 228.479 1031.06 229.468C1031.06 230.456 1030.87 231.329 1030.5 232.086C1030.13 232.843 1029.58 233.434 1028.86 233.859C1028.13 234.285 1027.23 234.497 1026.16 234.497H1021.96V233.08H1026.12C1026.92 233.08 1027.58 232.934 1028.1 232.641C1028.64 232.348 1029.03 231.931 1029.29 231.39C1029.55 230.848 1029.69 230.208 1029.69 229.468C1029.69 228.727 1029.55 228.081 1029.29 227.529C1029.03 226.97 1028.63 226.54 1028.1 226.236C1027.57 225.932 1026.9 225.78 1026.1 225.78H1022.6V241.358H1021.21ZM1027.94 233.702L1031.7 241.358H1030.09L1026.37 233.702H1027.94ZM1034.58 225.78V224.388H1045.65V225.78H1040.81V241.358H1039.42V225.78H1034.58Z" fill="#5DADE2"/>
<path d="M891.687 622.638H890.026C889.962 622.283 889.843 621.971 889.669 621.701C889.495 621.431 889.282 621.202 889.029 621.014C888.777 620.826 888.495 620.684 888.182 620.588C887.874 620.492 887.545 620.444 887.197 620.444C886.568 620.444 886.006 620.602 885.508 620.918C885.015 621.234 884.624 621.697 884.337 622.308C884.053 622.919 883.91 623.665 883.91 624.545C883.91 625.433 884.053 626.183 884.337 626.793C884.624 627.404 885.017 627.866 885.514 628.178C886.011 628.491 886.57 628.647 887.192 628.647C887.536 628.647 887.863 628.601 888.172 628.509C888.484 628.413 888.767 628.272 889.019 628.088C889.271 627.903 889.484 627.678 889.658 627.411C889.836 627.141 889.958 626.832 890.026 626.484L891.687 626.49C891.599 627.026 891.426 627.52 891.171 627.971C890.919 628.418 890.594 628.805 890.196 629.132C889.802 629.455 889.351 629.705 888.843 629.883C888.335 630.06 887.781 630.149 887.181 630.149C886.236 630.149 885.395 629.925 884.656 629.478C883.918 629.027 883.335 628.382 882.909 627.544C882.486 626.706 882.275 625.707 882.275 624.545C882.275 623.381 882.488 622.381 882.914 621.547C883.341 620.708 883.923 620.066 884.662 619.618C885.4 619.167 886.24 618.942 887.181 618.942C887.76 618.942 888.3 619.025 888.8 619.192C889.305 619.355 889.757 619.597 890.159 619.917C890.56 620.233 890.892 620.62 891.155 621.078C891.418 621.532 891.595 622.053 891.687 622.638ZM896.976 630.165C896.208 630.165 895.539 629.989 894.967 629.638C894.396 629.286 893.952 628.794 893.636 628.162C893.32 627.53 893.162 626.792 893.162 625.946C893.162 625.098 893.32 624.355 893.636 623.72C893.952 623.084 894.396 622.591 894.967 622.239C895.539 621.887 896.208 621.712 896.976 621.712C897.743 621.712 898.412 621.887 898.984 622.239C899.555 622.591 899.999 623.084 900.315 623.72C900.631 624.355 900.789 625.098 900.789 625.946C900.789 626.792 900.631 627.53 900.315 628.162C899.999 628.794 899.555 629.286 898.984 629.638C898.412 629.989 897.743 630.165 896.976 630.165ZM896.981 628.828C897.478 628.828 897.89 628.697 898.217 628.434C898.543 628.171 898.785 627.821 898.941 627.385C899.101 626.948 899.181 626.467 899.181 625.941C899.181 625.419 899.101 624.94 898.941 624.503C898.785 624.062 898.543 623.709 898.217 623.443C897.89 623.176 897.478 623.043 896.981 623.043C896.48 623.043 896.065 623.176 895.734 623.443C895.408 623.709 895.164 624.062 895.005 624.503C894.848 624.94 894.77 625.419 894.77 625.941C894.77 626.467 894.848 626.948 895.005 627.385C895.164 627.821 895.408 628.171 895.734 628.434C896.065 628.697 896.48 628.828 896.981 628.828ZM904.16 625.142V630H902.567V621.818H904.096V623.15H904.197C904.385 622.717 904.68 622.369 905.081 622.106C905.486 621.843 905.996 621.712 906.61 621.712C907.168 621.712 907.656 621.829 908.075 622.063C908.494 622.294 908.819 622.638 909.05 623.097C909.281 623.555 909.396 624.121 909.396 624.796V630H907.803V624.988C907.803 624.395 907.649 623.931 907.34 623.597C907.031 623.26 906.607 623.091 906.067 623.091C905.698 623.091 905.369 623.171 905.081 623.331C904.797 623.491 904.572 623.725 904.405 624.034C904.242 624.339 904.16 624.709 904.16 625.142ZM915.351 621.818V623.097H910.882V621.818H915.351ZM912.081 619.858H913.673V627.598C913.673 627.907 913.72 628.139 913.812 628.295C913.904 628.448 914.023 628.553 914.169 628.61C914.318 628.663 914.48 628.69 914.654 628.69C914.781 628.69 914.893 628.681 914.989 628.663C915.085 628.645 915.16 628.631 915.213 628.62L915.5 629.936C915.408 629.972 915.277 630.007 915.106 630.043C914.936 630.082 914.723 630.103 914.467 630.107C914.048 630.114 913.657 630.039 913.295 629.883C912.933 629.727 912.64 629.485 912.416 629.158C912.193 628.832 912.081 628.422 912.081 627.928V619.858ZM917.113 630V621.818H918.706V630H917.113ZM917.917 620.556C917.64 620.556 917.403 620.463 917.204 620.279C917.008 620.091 916.911 619.867 916.911 619.608C916.911 619.345 917.008 619.121 917.204 618.936C917.403 618.748 917.64 618.654 917.917 618.654C918.194 618.654 918.431 618.748 918.626 618.936C918.825 619.121 918.924 619.345 918.924 619.608C918.924 619.867 918.825 620.091 918.626 620.279C918.431 620.463 918.194 620.556 917.917 620.556ZM922.441 625.142V630H920.848V621.818H922.377V623.15H922.478C922.667 622.717 922.961 622.369 923.363 622.106C923.768 621.843 924.277 621.712 924.891 621.712C925.449 621.712 925.937 621.829 926.356 622.063C926.775 622.294 927.1 622.638 927.331 623.097C927.562 623.555 927.677 624.121 927.677 624.796V630H926.085V624.988C926.085 624.395 925.93 623.931 925.621 623.597C925.312 623.26 924.888 623.091 924.348 623.091C923.979 623.091 923.65 623.171 923.363 623.331C923.079 623.491 922.853 623.725 922.686 624.034C922.523 624.339 922.441 624.709 922.441 625.142ZM934.996 626.607V621.818H936.594V630H935.028V628.583H934.943C934.755 629.02 934.453 629.384 934.037 629.675C933.625 629.963 933.112 630.107 932.498 630.107C931.972 630.107 931.507 629.991 931.102 629.76C930.701 629.526 930.385 629.18 930.154 628.722C929.927 628.263 929.813 627.697 929.813 627.022V621.818H931.406V626.831C931.406 627.388 931.561 627.832 931.869 628.162C932.178 628.493 932.58 628.658 933.073 628.658C933.372 628.658 933.668 628.583 933.963 628.434C934.261 628.285 934.508 628.059 934.703 627.757C934.902 627.456 935 627.072 934.996 626.607ZM942.261 630.165C941.454 630.165 940.76 629.993 940.178 629.648C939.599 629.3 939.152 628.812 938.835 628.184C938.523 627.551 938.367 626.811 938.367 625.962C938.367 625.124 938.523 624.386 938.835 623.746C939.152 623.107 939.592 622.608 940.156 622.25C940.725 621.891 941.389 621.712 942.149 621.712C942.61 621.712 943.058 621.788 943.491 621.941C943.924 622.093 944.313 622.333 944.658 622.66C945.002 622.987 945.274 623.411 945.473 623.933C945.671 624.451 945.771 625.082 945.771 625.824V626.388H939.267V625.195H944.21C944.21 624.776 944.125 624.405 943.954 624.082C943.784 623.755 943.544 623.498 943.235 623.31C942.93 623.121 942.571 623.027 942.159 623.027C941.712 623.027 941.321 623.137 940.987 623.358C940.657 623.574 940.402 623.858 940.22 624.21C940.043 624.558 939.954 624.936 939.954 625.344V626.277C939.954 626.824 940.05 627.289 940.242 627.672C940.437 628.056 940.709 628.349 941.057 628.551C941.405 628.75 941.811 628.849 942.277 628.849C942.578 628.849 942.854 628.807 943.102 628.722C943.351 628.633 943.566 628.501 943.747 628.327C943.928 628.153 944.066 627.939 944.162 627.683L945.67 627.955C945.549 628.398 945.332 628.787 945.02 629.121C944.711 629.451 944.322 629.709 943.853 629.893C943.388 630.075 942.857 630.165 942.261 630.165ZM953.889 630.181C953.37 630.181 952.902 630.085 952.482 629.893C952.063 629.698 951.731 629.416 951.486 629.047C951.245 628.677 951.124 628.224 951.124 627.688C951.124 627.227 951.213 626.847 951.39 626.548C951.568 626.25 951.808 626.014 952.11 625.84C952.411 625.666 952.749 625.534 953.122 625.446C953.495 625.357 953.875 625.289 954.262 625.243C954.752 625.186 955.149 625.14 955.455 625.105C955.76 625.066 955.982 625.004 956.121 624.918C956.259 624.833 956.328 624.695 956.328 624.503V624.466C956.328 624 956.197 623.64 955.934 623.384C955.675 623.129 955.288 623.001 954.773 623.001C954.237 623.001 953.814 623.12 953.505 623.358C953.2 623.592 952.989 623.853 952.871 624.141L951.375 623.8C951.552 623.303 951.811 622.901 952.152 622.596C952.497 622.287 952.893 622.063 953.34 621.925C953.788 621.783 954.258 621.712 954.752 621.712C955.078 621.712 955.425 621.751 955.79 621.829C956.16 621.903 956.504 622.042 956.824 622.244C957.147 622.447 957.411 622.736 957.617 623.113C957.823 623.485 957.926 623.97 957.926 624.567V630H956.371V628.881H956.307C956.204 629.087 956.05 629.29 955.844 629.489C955.638 629.687 955.373 629.853 955.05 629.984C954.727 630.115 954.34 630.181 953.889 630.181ZM954.235 628.903C954.675 628.903 955.052 628.816 955.364 628.642C955.68 628.468 955.92 628.24 956.083 627.96C956.25 627.676 956.334 627.372 956.334 627.049V625.994C956.277 626.051 956.167 626.104 956.003 626.154C955.844 626.2 955.661 626.241 955.455 626.277C955.249 626.309 955.048 626.339 954.853 626.367C954.658 626.392 954.494 626.413 954.363 626.431C954.054 626.47 953.772 626.536 953.516 626.628C953.264 626.721 953.061 626.854 952.909 627.028C952.759 627.198 952.685 627.425 952.685 627.71C952.685 628.104 952.83 628.402 953.122 628.604C953.413 628.803 953.784 628.903 954.235 628.903ZM966.179 623.816L964.735 624.071C964.675 623.887 964.579 623.711 964.448 623.544C964.32 623.377 964.146 623.24 963.926 623.134C963.705 623.027 963.43 622.974 963.1 622.974C962.649 622.974 962.273 623.075 961.971 623.278C961.669 623.477 961.518 623.734 961.518 624.05C961.518 624.324 961.619 624.544 961.822 624.711C962.024 624.877 962.351 625.014 962.802 625.121L964.101 625.419C964.854 625.593 965.415 625.861 965.785 626.223C966.154 626.586 966.339 627.056 966.339 627.635C966.339 628.125 966.197 628.562 965.912 628.945C965.632 629.325 965.239 629.624 964.735 629.84C964.235 630.057 963.654 630.165 962.993 630.165C962.077 630.165 961.33 629.97 960.751 629.579C960.172 629.185 959.817 628.626 959.686 627.901L961.225 627.667C961.321 628.068 961.518 628.372 961.816 628.578C962.114 628.78 962.503 628.881 962.983 628.881C963.505 628.881 963.922 628.773 964.235 628.556C964.547 628.336 964.703 628.068 964.703 627.752C964.703 627.496 964.607 627.282 964.416 627.108C964.227 626.934 963.938 626.802 963.547 626.713L962.162 626.41C961.399 626.236 960.834 625.959 960.469 625.579C960.106 625.199 959.925 624.718 959.925 624.135C959.925 623.652 960.06 623.23 960.33 622.868C960.6 622.505 960.973 622.223 961.449 622.021C961.924 621.815 962.47 621.712 963.084 621.712C963.968 621.712 964.664 621.903 965.172 622.287C965.68 622.667 966.015 623.176 966.179 623.816ZM979.57 622.537C979.467 622.214 979.329 621.925 979.155 621.669C978.984 621.41 978.78 621.19 978.542 621.009C978.304 620.824 978.032 620.684 977.727 620.588C977.425 620.492 977.093 620.444 976.731 620.444C976.117 620.444 975.563 620.602 975.069 620.918C974.575 621.234 974.185 621.697 973.897 622.308C973.613 622.915 973.471 623.659 973.471 624.54C973.471 625.424 973.615 626.172 973.902 626.783C974.19 627.393 974.584 627.857 975.085 628.173C975.586 628.489 976.156 628.647 976.795 628.647C977.388 628.647 977.905 628.526 978.345 628.285C978.789 628.043 979.132 627.702 979.373 627.262C979.618 626.818 979.741 626.296 979.741 625.696L980.167 625.776H977.045V624.418H981.333V625.659C981.333 626.575 981.138 627.37 980.747 628.045C980.36 628.716 979.824 629.235 979.139 629.6C978.457 629.966 977.676 630.149 976.795 630.149C975.808 630.149 974.941 629.922 974.195 629.467C973.453 629.013 972.874 628.368 972.459 627.534C972.043 626.696 971.836 625.701 971.836 624.551C971.836 623.681 971.956 622.9 972.198 622.207C972.439 621.515 972.779 620.927 973.215 620.444C973.656 619.957 974.172 619.586 974.765 619.331C975.362 619.071 976.014 618.942 976.72 618.942C977.31 618.942 977.858 619.029 978.366 619.203C978.878 619.377 979.332 619.624 979.73 619.943C980.131 620.263 980.463 620.643 980.726 621.083C980.989 621.52 981.166 622.005 981.259 622.537H979.57ZM988.478 626.607V621.818H990.076V630H988.51V628.583H988.424C988.236 629.02 987.934 629.384 987.519 629.675C987.107 629.963 986.594 630.107 985.979 630.107C985.454 630.107 984.989 629.991 984.584 629.76C984.183 629.526 983.867 629.18 983.636 628.722C983.408 628.263 983.295 627.697 983.295 627.022V621.818H984.887V626.831C984.887 627.388 985.042 627.832 985.351 628.162C985.66 628.493 986.061 628.658 986.555 628.658C986.853 628.658 987.15 628.583 987.444 628.434C987.743 628.285 987.989 628.059 988.185 627.757C988.384 627.456 988.481 627.072 988.478 626.607ZM995.742 630.165C994.936 630.165 994.242 629.993 993.659 629.648C993.08 629.3 992.633 628.812 992.317 628.184C992.004 627.551 991.848 626.811 991.848 625.962C991.848 625.124 992.004 624.386 992.317 623.746C992.633 623.107 993.073 622.608 993.638 622.25C994.206 621.891 994.87 621.712 995.63 621.712C996.092 621.712 996.539 621.788 996.972 621.941C997.406 622.093 997.795 622.333 998.139 622.66C998.483 622.987 998.755 623.411 998.954 623.933C999.153 624.451 999.252 625.082 999.252 625.824V626.388H992.748V625.195H997.692C997.692 624.776 997.606 624.405 997.436 624.082C997.265 623.755 997.026 623.498 996.717 623.31C996.411 623.121 996.053 623.027 995.641 623.027C995.193 623.027 994.803 623.137 994.469 623.358C994.139 623.574 993.883 623.858 993.702 624.21C993.524 624.558 993.436 624.936 993.436 625.344V626.277C993.436 626.824 993.531 627.289 993.723 627.672C993.918 628.056 994.19 628.349 994.538 628.551C994.886 628.75 995.293 628.849 995.758 628.849C996.06 628.849 996.335 628.807 996.584 628.722C996.832 628.633 997.047 628.501 997.228 628.327C997.409 628.153 997.548 627.939 997.644 627.683L999.151 627.955C999.03 628.398 998.814 628.787 998.501 629.121C998.192 629.451 997.803 629.709 997.335 629.893C996.869 630.075 996.339 630.165 995.742 630.165ZM1007.15 623.816L1005.71 624.071C1005.65 623.887 1005.55 623.711 1005.42 623.544C1005.29 623.377 1005.12 623.24 1004.9 623.134C1004.68 623.027 1004.4 622.974 1004.07 622.974C1003.62 622.974 1003.24 623.075 1002.94 623.278C1002.64 623.477 1002.49 623.734 1002.49 624.05C1002.49 624.324 1002.59 624.544 1002.79 624.711C1003 624.877 1003.32 625.014 1003.77 625.121L1005.07 625.419C1005.83 625.593 1006.39 625.861 1006.76 626.223C1007.13 626.586 1007.31 627.056 1007.31 627.635C1007.31 628.125 1007.17 628.562 1006.88 628.945C1006.6 629.325 1006.21 629.624 1005.71 629.84C1005.21 630.057 1004.63 630.165 1003.97 630.165C1003.05 630.165 1002.3 629.97 1001.72 629.579C1001.14 629.185 1000.79 628.626 1000.66 627.901L1002.2 627.667C1002.29 628.068 1002.49 628.372 1002.79 628.578C1003.09 628.78 1003.48 628.881 1003.95 628.881C1004.48 628.881 1004.89 628.773 1005.21 628.556C1005.52 628.336 1005.67 628.068 1005.67 627.752C1005.67 627.496 1005.58 627.282 1005.39 627.108C1005.2 626.934 1004.91 626.802 1004.52 626.713L1003.13 626.41C1002.37 626.236 1001.81 625.959 1001.44 625.579C1001.08 625.199 1000.9 624.718 1000.9 624.135C1000.9 623.652 1001.03 623.23 1001.3 622.868C1001.57 622.505 1001.94 622.223 1002.42 622.021C1002.9 621.815 1003.44 621.712 1004.06 621.712C1004.94 621.712 1005.64 621.903 1006.14 622.287C1006.65 622.667 1006.99 623.176 1007.15 623.816ZM1012.88 621.818V623.097H1008.41V621.818H1012.88ZM1009.61 619.858H1011.2V627.598C1011.2 627.907 1011.25 628.139 1011.34 628.295C1011.43 628.448 1011.55 628.553 1011.7 628.61C1011.85 628.663 1012.01 628.69 1012.18 628.69C1012.31 628.69 1012.42 628.681 1012.52 628.663C1012.61 628.645 1012.69 628.631 1012.74 628.62L1013.03 629.936C1012.94 629.972 1012.81 630.007 1012.64 630.043C1012.47 630.082 1012.25 630.103 1012 630.107C1011.58 630.114 1011.19 630.039 1010.82 629.883C1010.46 629.727 1010.17 629.485 1009.95 629.158C1009.72 628.832 1009.61 628.422 1009.61 627.928V619.858Z" fill="#5DADE2"/>
<path d="M1032.48 625.833H1022.33V624.167H1032.48L1027.81 619.5L1029 618.333L1035.67 625L1029 631.667L1027.81 630.5L1032.48 625.833Z" fill="#5DADE2"/>
</svg>
